<svg version="1.2" xmlns="http://www.w3.org/2000/svg" viewBox="0 0 16 16" width="16" height="16"><defs><clipPath clipPathUnits="userSpaceOnUse" id="cp1"><path d="m8 16c-4.42 0-8-3.58-8-8 0-4.42 3.58-8 8-8 4.42 0 8 3.58 8 8 0 4.42-3.58 8-8 8z"/></clipPath><clipPath clipPathUnits="userSpaceOnUse" id="cp2"><path d="m15.85 7.64q-0.01 0-0.02 0-0.01 0-0.02 0 0 0-0.01 0-0.01 0-0.02 0l-0.16 0.01q-0.15 0.01-0.29 0.1-0.13 0.08-0.19 0.23l-0.04 0.09q-0.04 0.09-0.09 0.17-0.05 0.08-0.12 0.15-0.06 0.08-0.14 0.14-0.07 0.07-0.15 0.12-0.08 0.05-0.17 0.09-0.09 0.04-0.19 0.07-0.09 0.03-0.19 0.04-0.1 0.02-0.19 0.02h-0.66q-0.07 0-0.15-0.02-0.07-0.01-0.14-0.04-0.07-0.02-0.14-0.06-0.06-0.04-0.12-0.09-0.06-0.05-0.1-0.11-0.05-0.06-0.08-0.13-0.04-0.06-0.06-0.13-0.02-0.08-0.03-0.15l-0.02-0.26q0-0.03-0.01-0.06-0.01-0.03-0.02-0.06-0.01-0.03-0.02-0.06-0.01-0.02-0.03-0.05-0.02-0.03-0.04-0.05-0.01-0.02-0.04-0.05-0.02-0.02-0.04-0.04-0.03-0.02-0.05-0.03-0.05-0.03-0.09-0.07-0.04-0.03-0.08-0.07-0.04-0.04-0.07-0.09-0.04-0.04-0.06-0.09-0.03-0.05-0.05-0.1-0.02-0.05-0.03-0.1-0.02-0.06-0.02-0.11-0.01-0.06-0.01-0.11v-0.26q0-0.22 0.09-0.42 0.02-0.05 0.05-0.09 0.03-0.05 0.06-0.09 0.03-0.05 0.07-0.08 0.04-0.04 0.08-0.08l1.12-0.97q0.03-0.03 0.06-0.06 0.02-0.03 0.04-0.07 0.03-0.03 0.04-0.07 0.02-0.04 0.03-0.08 0.01-0.04 0.02-0.08 0-0.04 0-0.08 0-0.04 0-0.08-0.01-0.04-0.02-0.08-0.01-0.05-0.03-0.08-0.02-0.04-0.04-0.08-0.03-0.04-0.06-0.07-0.03-0.03-0.06-0.06-0.03-0.03-0.07-0.05-0.04-0.02-0.08-0.04-0.04-0.02-0.08-0.03-0.04-0.01-0.09-0.01l-0.11-0.02q-0.1-0.01-0.19-0.04-0.09-0.03-0.18-0.07-0.09-0.05-0.16-0.11-0.08-0.06-0.14-0.13-0.09-0.1-0.14-0.21-0.05-0.12-0.07-0.25-0.01-0.12 0.02-0.25 0.03-0.12 0.09-0.23l0.64-1.09q-0.13-0.07-0.26-0.15-0.13-0.07-0.26-0.14-0.14-0.07-0.27-0.14-0.14-0.06-0.28-0.13c-1.13-0.5-2.31-0.77-3.4-0.77q-0.16 0-0.34 0.01l0.86 1.22q0.06 0.09 0.1 0.18 0.05 0.1 0.08 0.2 0.03 0.1 0.05 0.2 0.01 0.11 0.01 0.21 0 0.11-0.02 0.21-0.02 0.11-0.06 0.21-0.03 0.1-0.09 0.19-0.05 0.09-0.11 0.18l-0.28 0.35q-0.04 0.05-0.09 0.1-0.05 0.05-0.1 0.09-0.06 0.04-0.12 0.07-0.06 0.04-0.12 0.06-0.06 0.03-0.13 0.05-0.07 0.01-0.13 0.02-0.07 0.01-0.14 0.01-0.07 0-0.14-0.01l-0.31-0.04q-0.05 0-0.1 0-0.05 0-0.11 0.01-0.05 0.01-0.1 0.02-0.04 0.02-0.09 0.04-0.19 0.09-0.3 0.27-0.04 0.07-0.09 0.13-0.05 0.06-0.1 0.11-0.06 0.05-0.12 0.1-0.07 0.04-0.14 0.07-0.07 0.04-0.14 0.06-0.08 0.02-0.15 0.04-0.08 0.01-0.16 0.01-0.07 0-0.15-0.01l-0.72-0.09q-0.05-0.01-0.1-0.01-0.06 0.01-0.11 0.01-0.05 0.01-0.1 0.02-0.05 0.02-0.1 0.04-0.04 0.02-0.09 0.05-0.04 0.03-0.08 0.06-0.04 0.03-0.07 0.07-0.04 0.04-0.07 0.08-0.05 0.07-0.07 0.16-0.03 0.08-0.03 0.17 0 0.09 0.02 0.17 0.02 0.09 0.07 0.16l0.48 0.74q0.11 0.18 0.32 0.23 0.05 0.02 0.1 0.02 0.05 0 0.1 0 0.05-0.01 0.1-0.02 0.05-0.02 0.09-0.04l0.49-0.26c0.33-0.17 0.93-0.36 1.31-0.24 0.35 0.23 0.95 0.36 0.95 0.36 0.46 0.08 0.94 0.34 0.94 0.87l0.23 0.63 0.6 0.3q0.04 0.05 0.08 0.1l0.6 0.69q0.04 0.06 0.08 0.12 0.03 0.06 0.06 0.13 0.02 0.07 0.03 0.15 0 0.07 0 0.14-0.01 0.04-0.02 0.07 0 0.04-0.01 0.07-0.02 0.04-0.03 0.07-0.02 0.03-0.03 0.07-0.02 0.03-0.04 0.06-0.02 0.03-0.05 0.05-0.02 0.03-0.05 0.06-0.03 0.02-0.05 0.04l-0.91 0.69q-0.06 0.04-0.12 0.1-0.05 0.06-0.1 0.12-0.04 0.07-0.08 0.14-0.03 0.07-0.06 0.14l-0.3 0.97q-0.01 0.04-0.03 0.09-0.02 0.05-0.05 0.09-0.02 0.05-0.05 0.09-0.03 0.04-0.06 0.08l-0.29 0.34q-0.06 0.08-0.11 0.16-0.05 0.08-0.09 0.16-0.04 0.09-0.06 0.18-0.02 0.09-0.03 0.19-0.01 0.06-0.02 0.11-0.02 0.06-0.04 0.12-0.02 0.05-0.05 0.1-0.03 0.05-0.06 0.1-0.15 0.19-0.37 0.28-0.07 0.03-0.15 0.05-0.07 0.01-0.14 0-0.08 0-0.15-0.02-0.07-0.02-0.13-0.06-0.04-0.01-0.07-0.03-0.03-0.03-0.05-0.05-0.03-0.02-0.06-0.05-0.02-0.03-0.04-0.06-0.02-0.03-0.04-0.06-0.02-0.03-0.03-0.07-0.02-0.03-0.03-0.06-0.01-0.04-0.01-0.08l-0.28-1.63q-0.01-0.05-0.02-0.1-0.02-0.04-0.04-0.09-0.02-0.05-0.05-0.09-0.02-0.05-0.05-0.09l-1.01-1.3q-0.05-0.06-0.09-0.13-0.04-0.06-0.07-0.13-0.04-0.07-0.06-0.14-0.03-0.07-0.05-0.14l-0.34-1.18q-0.01-0.06-0.03-0.1-0.02-0.05-0.05-0.1-0.03-0.05-0.06-0.09-0.03-0.04-0.07-0.08-0.04-0.04-0.08-0.07-0.05-0.03-0.09-0.06-0.05-0.02-0.1-0.05-0.05-0.02-0.1-0.03l-0.08-0.02q-0.08-0.02-0.15-0.05-0.08-0.03-0.15-0.07-0.07-0.04-0.14-0.09-0.07-0.05-0.13-0.11l-0.62-0.57q-0.05-0.05-0.09-0.1-0.05-0.04-0.09-0.09-0.04-0.06-0.08-0.11-0.03-0.05-0.07-0.11-0.04-0.06-0.08-0.12-0.05-0.06-0.1-0.11-0.06-0.04-0.12-0.08-0.06-0.04-0.13-0.07-0.06-0.04-0.13-0.06-0.08-0.01-0.15-0.02-0.07-0.01-0.15-0.01-0.07 0-0.14 0.01l-0.91 0.3q-0.04 0.2-0.08 0.41-0.04 0.2-0.06 0.41-0.02 0.21-0.04 0.42-0.01 0.21-0.01 0.42c0 4.41 3.64 8 8.12 8 4.47 0 8.11-3.59 8.11-8q0-0.19-0.01-0.4z"/></clipPath></defs><style>.a{fill:#4dac62}.b{fill:#3b7ab5}.c{fill:#96ce8d}</style><g clip-path="url(#cp1)"><path class="a" d="m8 16c-4.4 0-8-3.6-8-8 0-4.4 3.6-8 8-8 4.4 0 8 3.6 8 8 0 4.4-3.6 8-8 8z"/><g clip-path="url(#cp2)"><path class="b" d="m8 16c-4.4 0-8-3.6-8-8 0-4.4 3.6-8 8-8 4.4 0 8 3.6 8 8 0 4.4-3.6 8-8 8z"/></g><path class="c" d="m12.5 3.5c-0.1 0-0.2-0.1-0.2-0.3 0-0.1 0.1-0.2 0.2-0.2 0.1 0 0.3 0.1 0.3 0.2 0 0.2-0.2 0.3-0.3 0.3z"/></g></svg>